<svg width="143" height="93" viewBox="0 0 143 93" fill="none" xmlns="http://www.w3.org/2000/svg">
<path d="M2.816 74.155C2.00533 73.643 1.6 72.8324 1.6 71.723C1.6 70.6137 2.41067 68.9284 4.032 66.667C4.50133 65.9417 5.248 65.579 6.272 65.579C7.33867 65.579 8.768 66.1124 10.56 67.179C12.352 68.203 13.9733 68.715 15.424 68.715C18.0267 68.715 19.328 68.203 19.328 67.179C19.328 66.3684 17.8987 65.771 15.04 65.387C12.352 65.003 9.68533 64.0004 7.04 62.379C5.80267 61.611 4.77867 60.4164 3.968 58.795C3.15733 57.131 2.752 55.1684 2.752 52.907C2.752 46.1657 7.38133 42.795 16.64 42.795C19.6693 42.795 22.784 43.5204 25.984 44.971C27.4773 45.6537 28.224 46.507 28.224 47.531C28.224 48.555 27.7547 49.8137 26.816 51.307C25.8773 52.8004 24.9173 53.547 23.936 53.547C23.424 53.547 22.464 53.227 21.056 52.587C19.6907 51.947 18.1973 51.627 16.576 51.627C14.0587 51.627 12.8 52.0964 12.8 53.035C12.8 54.315 14.2507 55.147 17.152 55.531C19.968 55.8297 22.6987 56.6404 25.344 57.963C26.5813 58.5604 27.6053 59.6057 28.416 61.099C29.2693 62.5497 29.696 64.3844 29.696 66.603C29.696 68.8217 29.2693 70.7204 28.416 72.299C27.6053 73.835 26.4533 74.987 24.96 75.755C22.2293 77.0777 18.7947 77.739 14.656 77.739C10.56 77.739 6.61333 76.5444 2.816 74.155ZM52.5605 43.563C56.8272 43.563 60.3685 45.1844 63.1845 48.427C66.0432 51.6697 67.4725 55.6377 67.4725 60.331V71.595C67.4725 72.5764 67.4298 73.323 67.3445 73.835C67.3018 74.3044 67.1098 74.859 66.7685 75.499C66.2138 76.6084 64.5712 77.163 61.8405 77.163C59.2378 77.163 57.6165 76.6084 56.9765 75.499C56.6352 74.859 56.4218 74.283 56.3365 73.771C56.2938 73.259 56.2725 72.491 56.2725 71.467V60.267C56.2725 58.5177 55.7818 57.1524 54.8005 56.171C53.8192 55.1897 52.5605 54.699 51.0245 54.699C49.5312 54.699 48.2085 55.1684 47.0565 56.107C45.9045 57.003 45.2432 58.027 45.0725 59.179V71.595C45.0725 72.5764 45.0298 73.323 44.9445 73.835C44.9018 74.3044 44.7098 74.859 44.3685 75.499C43.8138 76.6084 42.1712 77.163 39.4405 77.163C36.7525 77.163 35.1098 76.587 34.5125 75.435C34.2138 74.795 34.0218 74.2404 33.9365 73.771C33.8938 73.3017 33.8725 72.555 33.8725 71.531V33.259C33.8725 32.2777 33.8938 31.5524 33.9365 31.083C34.0218 30.571 34.2138 30.0164 34.5125 29.419C35.1098 28.267 36.7738 27.691 39.5045 27.691C42.1925 27.691 43.8138 28.267 44.3685 29.419C44.7098 30.059 44.9018 30.635 44.9445 31.147C45.0298 31.6164 45.0725 32.3417 45.0725 33.323V47.467C47.2058 44.8644 49.7018 43.563 52.5605 43.563Z" fill="#0386FF"/>
<path d="M106.56 71.152V33.776C106.56 32.7947 106.581 32.0693 106.624 31.6C106.709 31.1307 106.901 30.5973 107.2 30C107.797 28.848 109.227 28.272 111.488 28.272C113.749 28.272 115.264 28.5707 116.032 29.168C116.843 29.7227 117.312 30.5547 117.44 31.664C119.061 29.4453 121.6 28.336 125.056 28.336C128.555 28.336 131.861 29.9787 134.976 33.264C138.091 36.5493 139.648 40.368 139.648 44.72C139.648 49.072 138.091 52.8907 134.976 56.176C131.904 59.4613 128.619 61.104 125.12 61.104C121.621 61.104 119.083 60.1227 117.504 58.16V71.088C117.504 72.0693 117.461 72.7947 117.376 73.264C117.333 73.7333 117.141 74.2667 116.8 74.864C116.501 75.504 115.968 75.952 115.2 76.208C114.432 76.464 113.387 76.592 112.064 76.592C110.741 76.592 109.675 76.464 108.864 76.208C108.096 75.952 107.541 75.5253 107.2 74.928C106.901 74.3307 106.709 73.7973 106.624 73.328C106.581 72.8587 106.56 72.1333 106.56 71.152ZM119.232 41.008C118.251 42.16 117.76 43.4187 117.76 44.784C117.76 46.1493 118.251 47.408 119.232 48.56C120.256 49.6693 121.536 50.224 123.072 50.224C124.651 50.224 125.973 49.6693 127.04 48.56C128.149 47.4507 128.704 46.192 128.704 44.784C128.704 43.376 128.192 42.1173 127.168 41.008C126.144 39.856 124.8 39.28 123.136 39.28C121.515 39.28 120.213 39.856 119.232 41.008Z" fill="#0386FF"/>
<path d="M70 45.4891H72.6704C74.3278 45.4891 75.6323 46.9933 75.4942 48.7239L74.2204 64.8331C74.1707 65.4572 74.2445 66.0854 74.4372 66.6778C74.6298 67.2703 74.9372 67.8141 75.3397 68.2748C75.7422 68.7355 76.2312 69.1031 76.7756 69.3543C77.32 69.6054 77.9079 69.7347 78.5022 69.7338H94.8466C97.0566 69.7338 98.9903 67.8253 99.1591 65.5124L99.9879 53.382C100.172 50.6971 98.2383 48.5136 95.6754 48.5136H75.8625M80.7428 55.1935H99.1591M91.8693 77.8369C92.3781 77.8369 92.8661 77.6239 93.2258 77.2448C93.5856 76.8656 93.7877 76.3514 93.7877 75.8152C93.7877 75.279 93.5856 74.7648 93.2258 74.3856C92.8661 74.0065 92.3781 73.7935 91.8693 73.7935C91.3606 73.7935 90.8726 74.0065 90.5129 74.3856C90.1531 74.7648 89.951 75.279 89.951 75.8152C89.951 76.3514 90.1531 76.8656 90.5129 77.2448C90.8726 77.6239 91.3606 77.8369 91.8693 77.8369ZM79.5918 77.8369C80.1006 77.8369 80.5885 77.6239 80.9483 77.2448C81.3081 76.8656 81.5102 76.3514 81.5102 75.8152C81.5102 75.279 81.3081 74.7648 80.9483 74.3856C80.5885 74.0065 80.1006 73.7935 79.5918 73.7935C79.083 73.7935 78.5951 74.0065 78.2353 74.3856C77.8756 74.7648 77.6735 75.279 77.6735 75.8152C77.6735 76.3514 77.8756 76.8656 78.2353 77.2448C78.5951 77.6239 79.083 77.8369 79.5918 77.8369V77.8369Z" stroke="#5E5D5D" stroke-width="3" stroke-miterlimit="10" stroke-linecap="round" stroke-linejoin="round"/>
</svg>
